<svg width="40" height="40" viewBox="0 0 40 40" fill="none" xmlns="http://www.w3.org/2000/svg">
<path d="M0 39.9398L2.62517 30.0645C-3.4651 19.1941 1.48482 5.35676 13.2485 1.18718C28.2776 -4.13958 43.0927 9.29837 39.3602 24.7598C36.3104 37.3959 21.813 43.7509 10.3654 37.5311L0 39.9398Z" fill="#616160"/>
<path d="M11.3528 9.03649C12.1517 8.92076 13.1484 8.8909 13.7102 9.51059C14.0854 9.92496 15.8119 13.9884 15.9949 14.6715C16.1927 15.4051 15.6775 16.0584 15.2669 16.6165C14.9496 17.0476 14.0387 17.7905 14.0406 18.2852C14.0406 18.5894 14.4232 19.112 14.6006 19.3976C16.0154 21.6916 18.2515 23.7765 20.6407 25.0252C21.2809 25.3612 22.6957 26.1507 23.3322 25.7905C23.9164 25.4022 25.2771 23.14 25.7176 22.9534C26.1245 22.7798 26.5445 22.9272 26.9365 23.0635C27.8175 23.3696 30.9532 24.8404 31.6439 25.3556C32.3345 25.8707 31.7913 28.0229 31.4031 28.7471C30.7013 30.0592 28.5547 31.2165 27.1026 31.3359C23.8959 31.6029 18.7499 29.2846 16.217 27.336C13.2193 25.0289 8.26181 19.2427 7.9389 15.3902C7.76345 13.3015 8.94683 9.37807 11.3547 9.03089L11.3528 9.03649Z" fill="#D9D9D9"/>
</svg>
